# xmcd
#
# Track frame offsets:
#	150
#	12289
#	25590
#	37703
#	49112
#	59041
#	71573
#	85695
#	97600
#	107512
#
# Disc length: 1601 seconds
#
# Revision: 1
# Processed by: cddbd v1.5.2PL0 Copyright (c) Steve Scherf et al.
# Submitted via: audiograbber 1.83.01
#
DISCID=6a063f0a
DTITLE=Liz Anderson - If The Creek Don't Rise
DYEAR=1969
DGENRE=Country
TTITLE0=Mockin' Bird Hill
TTITLE1=(Margie's At) The Lincoln Park Inn
TTITLE2=Rings Of Gold
TTITLE3=The Rainy Season's Over
TTITLE4=Stand Back (There's Gonna Be A Fight)
TTITLE5=If The Creek Don't Rise
TTITLE6=Mr. Walker, It's All Over
TTITLE7=Roses Are Red (My Love)
TTITLE8=Ekcedrin Headache #99
TTITLE9=This Ole House
EXTD=
EXTT0=
EXTT1=
EXTT2=
EXTT3=
EXTT4=
EXTT5=
EXTT6=
EXTT7=
EXTT8=
EXTT9=
PLAYORDER=
